<svg width="2428" height="1081" viewBox="0 0 2428 1081" fill="none" xmlns="http://www.w3.org/2000/svg">
<g clip-path="url(#clip0_111_11)">
<path d="M2123.87 567.859C2219.91 523.515 2303.95 478 2428 478V1081H-1C143.059 1028.98 328.786 1071.93 403.166 1007.69C507.209 917.835 675.278 905.936 843.348 922.565C1011.42 939.194 1207.5 872.837 1299.54 830.341C1487.74 743.442 1673.64 766.47 1807.74 742.847C1955.81 716.766 2003.83 623.288 2123.87 567.859Z" fill="#F7BF6D"/>
<path d="M559.116 882.662C645.216 867.207 899.798 948.63 1022.25 848.875C1058.13 815.506 974.869 862.341 931.369 869.215C906.258 873.183 793.848 868.48 731.664 859.555C671.898 850.978 681.09 848.875 592.599 848.875C454.772 848.875 318.613 985.084 365.391 976.621C424.788 965.876 473.016 898.117 559.116 882.662Z" fill="white"/>
<path d="M131.286 1036.49C178.215 1025.4 320.445 1065.23 385.066 1005.02C403.884 985.006 359.375 1013.95 335.64 1019.02C321.938 1021.95 259.99 1022.22 225.549 1018.75C192.446 1015.42 197.444 1013.98 148.778 1016.3C72.9805 1019.92 -21.2273 1086.36 4.26723 1080.3C36.6389 1072.6 84.3574 1047.58 131.286 1036.49Z" fill="white"/>
<path d="M1521.61 719.118C1592.66 705.539 1802.73 777.075 1903.78 689.433C1933.38 660.116 1864.68 701.264 1828.79 707.303C1808.06 710.789 1715.31 706.657 1663.99 698.817C1614.67 691.281 1622.26 689.433 1549.24 689.433C1435.51 689.433 1323.15 809.103 1361.75 801.667C1410.76 792.226 1450.56 732.696 1521.61 719.118Z" fill="white"/>
<path d="M2292.73 433.32C2354.49 414.973 2755.21 430.617 2825.54 354.791C2845.22 329.927 2603.14 379.456 2571.73 388.127C2553.6 393.133 2467.38 401.176 2418.26 401.582C2371.05 401.972 2377.54 399.724 2310.5 408.423C2206.08 421.971 2133.57 522.456 2167.1 512.446C2209.68 499.735 2230.98 451.666 2292.73 433.32Z" fill="white"/>
<path d="M2115.38 466.149C2088.74 486.272 1968.53 482.786 1956 549.941C1953.68 571.669 1969.04 536.409 1982.8 526.706C1990.75 521.104 2033.64 507.16 2059.43 502.579C2084.22 498.176 2081.52 500.549 2114.08 487.738C2164.79 467.784 2170.48 380.582 2156.03 391.547C2137.68 405.471 2142.03 446.026 2115.38 466.149Z" fill="white"/>
<path d="M1263.74 796.547C1232.82 811.265 1123.04 816.474 1089.27 867.735C1079.91 884.368 1105.63 857.7 1121.37 850.629C1130.46 846.546 1174.09 837.032 1199.05 834.234C1223.04 831.545 1225.58 831.769 1259.44 822.836C1312.17 808.922 1353.9 737.105 1337.12 745.127C1315.8 755.314 1294.66 781.828 1263.74 796.547Z" fill="white"/>
<path d="M350.559 899.903C320.384 914.527 210.812 926.082 179.666 972.242C171.169 987.117 195.522 962.576 210.908 955.493C219.79 951.404 262.951 940.425 287.784 936.413C311.651 932.557 314.201 932.586 347.618 922.735C399.665 907.394 437.703 843.084 421.319 851.05C400.516 861.166 380.735 885.279 350.559 899.903Z" fill="white"/>
<path d="M1228.02 743.809C1194.91 753.925 1085.01 743.567 1043.12 789.219C1031.13 804.26 1061.01 781.658 1077.8 776.923C1087.49 774.189 1132.38 770.985 1157.63 771.753C1181.91 772.492 1184.39 773.07 1219.48 769.059C1274.13 762.811 1327.26 698.062 1309.28 703.585C1286.44 710.597 1261.13 733.693 1228.02 743.809Z" fill="white"/>
<path d="M1977.68 594.866C1952.34 610.947 1849.97 620.739 1831.54 673.678C1827.08 690.79 1844.37 662.911 1857.38 655.147C1864.9 650.666 1903.62 639.29 1926.47 635.441C1948.44 631.742 1950.9 631.862 1980.54 621.475C2026.72 605.298 2047.25 531.361 2033.49 540.123C2016.03 551.249 2003.03 578.784 1977.68 594.866Z" fill="white"/>
<path d="M2330.87 459.422C2352 453.732 2420.6 469.728 2448.48 436.445C2456.53 425.352 2436.99 441.183 2426.29 443.755C2420.11 445.24 2391.83 444.61 2376.01 442.214C2360.81 439.911 2359.27 439.276 2337.11 439.98C2302.6 441.075 2267 488.724 2278.48 485.612C2293.05 481.659 2309.74 465.112 2330.87 459.422Z" fill="white"/>
<path d="M2149 910C2181.59 764.273 2199.91 696.614 2205 681" stroke="#673E3F" stroke-width="7.8" stroke-linecap="round"/>
<path d="M2164.08 806.44C2170.88 811.037 2186.7 801.756 2198.36 803.298C2207.1 804.455 2212.26 815.824 2231.04 821.84C2240.89 813.854 2248.11 801.35 2261.03 802.777C2268.7 803.622 2274.04 805.857 2278.49 808.791C2281.98 811.086 2286.36 807.887 2284.62 804.093L2216.39 655.554L2071.82 744.761C2067.98 747.13 2069.42 749.708 2073.88 749.041C2076.74 748.612 2079.48 749.137 2082.42 751.271C2099.88 763.957 2084.43 774.024 2097.91 787.05C2111.07 793.119 2131.69 780.257 2142.81 782.936C2156.54 786.247 2153.37 786.632 2164.08 806.44Z" fill="white"/>
<path d="M2164.08 806.44C2170.88 811.037 2186.7 801.756 2198.36 803.298C2207.1 804.455 2212.26 815.824 2231.04 821.84M2164.08 806.44C2153.37 786.632 2156.54 786.247 2142.81 782.936C2131.69 780.257 2111.07 793.119 2097.91 787.05M2164.08 806.44L2216.39 655.554M2216.39 655.554L2284.62 804.093C2286.36 807.887 2281.98 811.086 2278.49 808.791C2274.04 805.857 2268.7 803.622 2261.03 802.777C2248.11 801.35 2240.89 813.854 2231.04 821.84M2216.39 655.554L2071.82 744.761C2067.98 747.13 2069.42 749.708 2073.88 749.041C2076.74 748.612 2079.48 749.137 2082.42 751.271C2099.88 763.957 2084.43 774.024 2097.91 787.05M2216.39 655.554L2231.04 821.84M2216.39 655.554L2097.91 787.05" stroke="#673E3F" stroke-width="7.8" stroke-linecap="round"/>
<path d="M2261.03 802.777C2268.7 803.622 2274.04 805.857 2278.49 808.791C2281.98 811.086 2286.36 807.887 2284.62 804.093L2216.39 655.554L2105.87 778.216C2103.35 781.018 2105.86 785.448 2109.57 784.796C2120.81 782.821 2134.89 781.028 2142.81 782.936C2147.91 784.167 2152.12 787.195 2155.4 790.713C2158.26 793.781 2168.67 793.2 2170.05 789.223L2216.39 655.554L2229.79 807.621C2230.14 811.576 2236.39 812.98 2239.29 810.253C2245.21 804.673 2252.7 801.857 2261.03 802.777Z" fill="#FB1258"/>
<path d="M2216.39 655.554L2284.62 804.093C2286.36 807.887 2281.98 811.086 2278.49 808.791C2274.04 805.857 2268.7 803.622 2261.03 802.777C2252.7 801.857 2245.21 804.673 2239.29 810.253C2236.39 812.98 2230.14 811.576 2229.79 807.621L2216.39 655.554ZM2216.39 655.554L2170.05 789.223C2168.67 793.2 2158.26 793.781 2155.4 790.713C2152.12 787.195 2147.91 784.167 2142.81 782.936C2134.89 781.028 2120.81 782.821 2109.57 784.796C2105.86 785.448 2103.35 781.018 2105.87 778.216L2216.39 655.554Z" stroke="#673E3F" stroke-width="7.8" stroke-linecap="round"/>
</g>
<defs>
<clipPath id="clip0_111_11">
<rect width="2428" height="1081" fill="white"/>
</clipPath>
</defs>
</svg>
