<svg width="480" height="480" viewBox="0 0 480 480" fill="none" xmlns="http://www.w3.org/2000/svg">
<g clip-path="url(#clip0_8_46)">
<path d="M54.2017 148.888L69.1865 148.214" stroke="#FFA903" stroke-width="3" stroke-linecap="round"/>
<path d="M62.0317 156.043L61.3572 141.059" stroke="#FFA903" stroke-width="3" stroke-linecap="round"/>
</g>
<g clip-path="url(#clip1_8_46)">
<path d="M137.353 250.023L167.312 251.593" stroke="#FFA903" stroke-width="6" stroke-linecap="round"/>
<path d="M151.548 265.787L153.118 235.829" stroke="#FFA903" stroke-width="6" stroke-linecap="round"/>
</g>
<g clip-path="url(#clip2_8_46)">
<path d="M126.833 30.9173L164.281 32.8799" stroke="#FFA903" stroke-width="7.5" stroke-linecap="round"/>
<path d="M144.575 50.6229L146.538 13.1743" stroke="#FFA903" stroke-width="7.5" stroke-linecap="round"/>
</g>
<g clip-path="url(#clip3_8_46)">
<path d="M20.6294 380.432L50.5991 379.083" stroke="#FFA903" stroke-width="6" stroke-linecap="round"/>
<path d="M36.2886 394.742L34.9396 364.773" stroke="#FFA903" stroke-width="6" stroke-linecap="round"/>
</g>
<g clip-path="url(#clip4_8_46)">
<path d="M233.962 116.172L263.932 114.823" stroke="#FFA903" stroke-width="6" stroke-linecap="round"/>
<path d="M249.622 130.482L248.273 100.513" stroke="#FFA903" stroke-width="6" stroke-linecap="round"/>
</g>
<g clip-path="url(#clip5_8_46)">
<path d="M260.688 212.868L275.672 212.194" stroke="#FFA903" stroke-width="3" stroke-linecap="round"/>
<path d="M268.517 220.023L267.843 205.039" stroke="#FFA903" stroke-width="3" stroke-linecap="round"/>
</g>
<g clip-path="url(#clip6_8_46)">
<path d="M413.176 166.73L445.995 163.281" stroke="#FFA903" stroke-width="6.6" stroke-linecap="round"/>
<path d="M431.31 181.415L427.861 148.596" stroke="#FFA903" stroke-width="6.6" stroke-linecap="round"/>
</g>
<g clip-path="url(#clip7_8_46)">
<path d="M391.295 429.815L418.268 428.601" stroke="#FFA903" stroke-width="5.4" stroke-linecap="round"/>
<path d="M405.388 442.694L404.174 415.721" stroke="#FFA903" stroke-width="5.4" stroke-linecap="round"/>
</g>
<g clip-path="url(#clip8_8_46)">
<path d="M327.587 322.771L369.544 320.883" stroke="#FFA903" stroke-width="8.4" stroke-linecap="round"/>
<path d="M349.51 342.806L347.621 300.848" stroke="#FFA903" stroke-width="8.4" stroke-linecap="round"/>
</g>
<g clip-path="url(#clip9_8_46)">
<path d="M351.764 40.5986L369.745 39.7892" stroke="#FFA903" stroke-width="3.6" stroke-linecap="round"/>
<path d="M361.159 49.1848L360.35 31.203" stroke="#FFA903" stroke-width="3.6" stroke-linecap="round"/>
</g>
<g clip-path="url(#clip10_8_46)">
<path d="M97.3643 457.224L127.291 455.132" stroke="#FFA903" stroke-width="6" stroke-linecap="round"/>
<path d="M113.374 471.141L111.281 441.214" stroke="#FFA903" stroke-width="6" stroke-linecap="round"/>
</g>
<g clip-path="url(#clip11_8_46)">
<path d="M201.252 371.101L227.146 369.935" stroke="#FFA903" stroke-width="5.184" stroke-linecap="round"/>
<path d="M214.782 383.465L213.616 357.571" stroke="#FFA903" stroke-width="5.184" stroke-linecap="round"/>
</g>
<defs>
<clipPath id="clip0_8_46">
<rect width="18.3" height="18" fill="white" transform="translate(51.999 139.978) rotate(-2.57723)"/>
</clipPath>
<clipPath id="clip1_8_46">
<rect width="36.6" height="36" fill="white" transform="translate(134.7 231.859) rotate(3)"/>
</clipPath>
<clipPath id="clip2_8_46">
<rect width="45.75" height="45" fill="white" transform="translate(123.516 8.21259) rotate(3)"/>
</clipPath>
<clipPath id="clip3_8_46">
<rect width="36.6" height="36" fill="white" transform="translate(16.2236 362.612) rotate(-2.57723)"/>
</clipPath>
<clipPath id="clip4_8_46">
<rect width="36.6" height="36" fill="white" transform="translate(229.557 98.3522) rotate(-2.57723)"/>
</clipPath>
<clipPath id="clip5_8_46">
<rect width="18.3" height="18" fill="white" transform="translate(258.485 203.958) rotate(-2.57723)"/>
</clipPath>
<clipPath id="clip6_8_46">
<rect width="40.26" height="39.6" fill="white" transform="translate(407.168 147.453) rotate(-6)"/>
</clipPath>
<clipPath id="clip7_8_46">
<rect width="32.94" height="32.4" fill="white" transform="translate(387.33 413.777) rotate(-2.57723)"/>
</clipPath>
<clipPath id="clip8_8_46">
<rect width="51.24" height="50.4" fill="white" transform="translate(321.419 297.823) rotate(-2.57723)"/>
</clipPath>
<clipPath id="clip9_8_46">
<rect width="21.96" height="21.6" fill="white" transform="translate(349.12 29.9066) rotate(-2.57723)"/>
</clipPath>
<clipPath id="clip10_8_46">
<rect width="36.6" height="36" fill="white" transform="translate(92.5176 439.519) rotate(-4)"/>
</clipPath>
<clipPath id="clip11_8_46">
<rect width="31.6224" height="31.104" fill="white" transform="translate(197.445 355.704) rotate(-2.57723)"/>
</clipPath>
</defs>
</svg>
